<svg width="40" height="40" viewBox="0 0 40 40" fill="none" xmlns="http://www.w3.org/2000/svg">
<g clip-path="url(#clip0_91_170)">
<mask id="mask0_91_170" style="mask-type:alpha" maskUnits="userSpaceOnUse" x="0" y="0" width="40" height="40">
<rect width="40" height="40" rx="12" fill="#D9D9D9"/>
</mask>
<g mask="url(#mask0_91_170)">
<path d="M14.3895 -1.97998C12.2456 1.39354 10.8864 3.52666 10.312 4.41937C7.23357 9.20608 3.83441 13.9032 0.0436096 18.1748" stroke="#FE8344" stroke-width="2.01884"/>
<path d="M17.4503 -1.97705C16.4719 -0.0657785 15.33 1.97455 14.0245 4.14393C11.4382 8.44322 8.78095 12.4807 6.05275 16.2563C4.12656 18.9227 2.11367 21.4136 0.0140686 23.7291" stroke="#FD7753" stroke-width="2.01884"/>
<path d="M23.9501 -1.9668L23.7491 -1.9268C23.728 -1.92289 23.7081 -1.91361 23.6909 -1.89971C23.6737 -1.88581 23.6597 -1.86769 23.6501 -1.84681C22.1781 1.32194 20.4411 4.61013 18.439 8.01779C16.77 10.858 15.4743 12.9997 14.5521 14.4427C11.9703 18.4823 8.49424 23.1059 5.39066 27.3534C4.37091 28.7485 3.01962 30.8395 1.33679 33.6264" stroke="#FE6863" stroke-width="2.01884"/>
<path d="M28.5242 -1.86133C26.7655 2.45343 24.3669 6.06746 21.7643 9.97587" stroke="#FD5576" stroke-width="2.01884"/>
<path d="M21.7643 9.97578C20.3021 9.77313 19.0637 10.2051 18.0488 11.2716C17.7872 11.5468 17.6557 11.902 17.4488 12.214C16.701 13.345 16.9079 15.1801 17.4429 16.3687C17.456 16.3979 17.4596 16.4309 17.4531 16.4626C17.4467 16.4942 17.4306 16.5226 17.4074 16.5431C16.2295 17.5974 15.1507 19.0773 14.3334 20.3699C14.0595 20.804 13.8004 21.1933 13.556 21.5378C12.9043 22.4561 12.3338 23.4064 11.7308 24.3343C11.6714 24.4257 11.5863 24.4936 11.4885 24.5279C10.5199 24.8692 9.79725 25.4745 9.32038 26.3437C9.10461 26.7383 8.98835 27.1639 8.9716 27.6204C8.95485 28.0939 9.03219 28.5435 9.20363 28.9691" stroke="#FEAFB5" stroke-width="2.01884"/>
<path d="M9.20364 28.9688C7.70111 31.8453 5.96212 34.5564 3.98666 37.1023" stroke="#FD5576" stroke-width="2.01884"/>
<path d="M13.9092 29.5894C13.3949 31.1007 12.9422 32.2893 12.551 33.1554C12.2427 33.838 11.4801 35.4661 10.2633 38.0397C9.98246 38.6316 9.70758 39.231 9.4386 39.8379" stroke="#FA3A95" stroke-width="2.01884"/>
<path d="M34.7106 -1.24561C33.4505 0.800053 32.1948 2.83985 30.9435 4.87377C29.3552 7.45484 27.3881 10.2284 25.0422 13.1945" stroke="#FC408C" stroke-width="2.01884"/>
<path d="M25.0423 13.1945C24.7555 11.9519 24.0925 11.0309 23.053 10.4315C22.6875 10.2214 22.2579 10.0694 21.7643 9.97559" stroke="#FDA4C0" stroke-width="2.01884"/>
<path d="M23.9915 29.3384C23.4683 29.4328 22.9614 29.5192 22.4175 29.516C19.7898 29.5021 17.1621 29.5208 14.5344 29.572C14.3196 29.5762 14.1113 29.5821 13.9093 29.5896" stroke="#FB94D3" stroke-width="2.01884"/>
<path d="M13.9092 29.5895C13.1841 30.1057 12.6998 30.4038 12.4565 30.4838C11.7412 30.7174 11.0387 30.6848 10.349 30.3862C9.79329 30.1446 9.52727 29.5607 9.20361 28.9688" stroke="#FDA4C0" stroke-width="2.01884"/>
<path d="M38.8488 1.7793C36.5226 4.47822 34.8673 7.09236 33.0244 9.90487C31.2199 12.6582 28.8863 15.4531 26.6399 18.0672" stroke="#FA2F9F" stroke-width="2.01884"/>
<path d="M26.639 18.0674C26.12 17.5086 25.5626 16.9929 24.9668 16.5204C24.9284 16.4905 24.8865 16.4708 24.8412 16.4612C24.7959 16.4516 24.7792 16.4228 24.791 16.3748C24.8841 15.9829 25.051 15.6821 25.1056 15.2597C25.1923 14.5739 25.1711 13.8855 25.0421 13.1943" stroke="#FD9ACA" stroke-width="2.01884"/>
<path d="M40.7774 4.80957C38.8 7.75007 36.8374 10.7114 34.8895 13.6935C33.0589 16.4942 30.9016 18.9751 28.4178 21.1359" stroke="#F720B6" stroke-width="2.01884"/>
<path d="M28.417 21.1364C28.0388 19.9674 27.4464 18.9446 26.6399 18.0679" stroke="#FB94D3" stroke-width="2.01884"/>
<path d="M41.2518 5.97461C40.5188 9.58704 39.1749 12.9115 37.2201 15.948C35.4328 18.7221 33.4692 21.3965 31.3292 23.9712C29.9681 25.6078 28.5508 27.1629 27.234 28.8635C24.5107 32.3821 22.0293 36.0937 19.7898 39.9983" stroke="#F311CF" stroke-width="2.01884"/>
<path d="M17.5685 39.9965L23.9915 29.3384" stroke="#F720B6" stroke-width="2.01884"/>
<path d="M23.9915 29.3381C24.7994 28.9861 25.3196 28.7206 25.5521 28.5414C26.9547 27.4551 28.1695 25.8553 28.4784 24.0474C28.5198 23.8053 28.5641 23.5611 28.6114 23.3147C28.7459 22.614 28.607 21.8125 28.4178 21.1357" stroke="#FA8AE1" stroke-width="2.01884"/>
<path d="M41.9834 16.1523C39.7562 20.9167 36.9718 24.8699 33.7145 28.9894C33.0997 29.767 32.4302 30.5525 31.7061 31.346C30.3947 32.7827 29.0665 34.2556 27.7217 35.7647C26.6206 36.9982 25.5684 38.2861 25.1117 39.9995" stroke="#EE06EA" stroke-width="2.01884"/>
<path d="M21.7642 15.3726C22.0488 15.1639 22.2427 14.8374 22.3032 14.4648C22.3637 14.0922 22.2858 13.704 22.0867 13.3857C21.9882 13.2281 21.8628 13.0924 21.7178 12.9863C21.5728 12.8802 21.4109 12.8058 21.2416 12.7674C21.0722 12.729 20.8986 12.7273 20.7307 12.7624C20.5627 12.7976 20.4037 12.8688 20.2628 12.9721C19.9781 13.1807 19.7843 13.5073 19.7238 13.8799C19.6633 14.2525 19.7411 14.6406 19.9402 14.9589C20.0388 15.1166 20.1642 15.2523 20.3092 15.3584C20.4542 15.4645 20.616 15.5388 20.7854 15.5772C20.9547 15.6157 21.1284 15.6173 21.2963 15.5822C21.4642 15.5471 21.6232 15.4759 21.7642 15.3726Z" stroke="#FDA4C0" stroke-width="2.01884"/>
<path d="M23.0574 26.222C24.4998 25.6845 25.326 24.6376 25.5358 23.0815C25.5876 22.7024 25.4708 22.384 25.4398 22.016C25.3851 21.3393 24.9506 20.6754 24.5072 20.2114" stroke="#FB94D3" stroke-width="2.01884"/>
<path d="M24.5073 20.2118C24.2472 19.9067 24.0747 19.7222 23.99 19.6582C23.4668 19.2679 23.0466 18.966 22.7294 18.7527C22.4357 18.5543 22.1229 18.4509 21.7909 18.4423C21.2608 18.4274 20.7401 18.4125 20.2288 18.3975C19.3228 18.3735 19.2947 19.1079 18.6681 19.5142C18.5922 19.5637 18.5276 19.631 18.4789 19.711C18.343 19.9339 18.1873 20.1558 18.0119 20.3765C16.9222 21.7492 15.7936 23.2904 14.6261 25.0001C14.364 25.384 14.2098 25.8309 14.1635 26.3407C14.1622 26.3544 14.1636 26.3681 14.1675 26.3811C14.1714 26.3941 14.1777 26.406 14.1861 26.4161C14.1944 26.4262 14.2046 26.4343 14.216 26.4398C14.2274 26.4452 14.2397 26.448 14.2521 26.4479C16.6414 26.449 19.0632 26.4479 21.5175 26.4447C22.1963 26.4437 22.7097 26.3695 23.0574 26.2224" stroke="#FD9ACA" stroke-width="2.01884"/>
<path d="M24.5065 20.2114L23.0574 26.222" stroke="#FA2F9F" stroke-width="2.01884"/>
<path d="M14.3896 -1.98006C12.2456 1.39346 10.8865 3.52658 10.3121 4.41929C7.23359 9.206 3.83443 13.9031 0.0436312 18.1747C0.0387049 16.3882 0.0579175 13.6685 0.101269 10.0155C0.134768 7.14861 0.976676 4.65073 2.62699 2.52188C4.29997 0.364232 6.31927 -1.01696 8.68489 -1.6217C9.13318 -1.73689 9.55143 -1.81368 9.93962 -1.85208C10.4924 -1.90807 11.0288 -1.99126 11.583 -1.99606C12.5171 -2.00459 13.4526 -1.99926 14.3896 -1.98006Z" fill="#FE883D"/>
<path d="M17.4503 -1.97678C16.4719 -0.0655082 15.33 1.97482 14.0245 4.1442C11.4382 8.44349 8.78095 12.481 6.05275 16.2566C4.12656 18.923 2.11367 21.4139 0.0140686 23.7294L0.0436265 18.1748C3.83443 13.9032 7.23359 9.20608 10.312 4.41937C10.8865 3.52666 12.2456 1.39354 14.3896 -1.97998L17.4503 -1.97678Z" fill="#FD7E4B"/>
<path d="M23.9501 -1.96745L23.7491 -1.92746C23.728 -1.92354 23.7081 -1.91426 23.6909 -1.90036C23.6737 -1.88647 23.6597 -1.86834 23.6501 -1.84746C22.1781 1.32128 20.441 4.60948 18.439 8.01713C16.77 10.8574 15.4743 12.999 14.5521 14.4421C11.9702 18.4817 8.49423 23.1052 5.39065 27.3528C4.3709 28.7478 3.01961 30.8388 1.33678 33.6257C0.583052 32.044 0.161359 30.4149 0.0716999 28.7382C0.00273142 27.4413 -0.0164812 25.7716 0.014062 23.7291C2.11366 21.4136 4.12655 18.9227 6.05275 16.2563C8.78094 12.4807 11.4382 8.44322 14.0245 4.14393C15.33 1.97455 16.4719 -0.0657784 17.4503 -1.97705L23.9501 -1.96745Z" fill="#FD705A"/>
<path d="M28.5242 -1.86121C26.7655 2.45355 24.3668 6.06759 21.7643 9.97599C20.3021 9.77334 19.0637 10.2053 18.0488 11.2719C17.7873 11.547 17.6557 11.9022 17.4488 12.2142C16.701 13.3452 16.9079 15.1803 17.4429 16.3689C17.456 16.3981 17.4596 16.4312 17.4532 16.4628C17.4467 16.4944 17.4306 16.5228 17.4074 16.5433C16.2296 17.5976 15.1507 19.0775 14.3334 20.3701C14.0595 20.8042 13.8004 21.1935 13.556 21.538C12.9043 22.4563 12.3338 23.4066 11.7308 24.3345C11.6714 24.4259 11.5863 24.4938 11.4885 24.5281C10.5199 24.8694 9.79725 25.4747 9.32039 26.3439C9.10461 26.7386 8.98835 27.1641 8.9716 27.6206C8.95485 28.0941 9.0322 28.5437 9.20363 28.9693C7.7011 31.8458 5.96211 34.557 3.98666 37.1028C2.89794 36.1195 2.01465 34.9606 1.33679 33.6264C3.01962 30.8395 4.37091 28.7485 5.39066 27.3534C8.49424 23.1059 11.9703 18.4823 14.5521 14.4427C15.4743 12.9997 16.77 10.858 18.439 8.01779C20.4411 4.61014 22.1781 1.32194 23.6501 -1.84681C23.6597 -1.86769 23.6737 -1.88581 23.6909 -1.89971C23.7081 -1.91361 23.728 -1.92289 23.7491 -1.9268L23.9501 -1.9668L28.5242 -1.86121Z" fill="#FE606B"/>
<path d="M34.7106 -1.24567C33.4505 0.799992 32.1947 2.83978 30.9435 4.87371C29.3552 7.45478 27.3881 10.2284 25.0422 13.1945C24.7555 11.9519 24.0924 11.031 23.053 10.4315C22.6874 10.2214 22.2579 10.0694 21.7643 9.97559C24.3668 6.06719 26.7655 2.45316 28.5241 -1.8616C30.0779 -1.8904 31.3016 -1.8744 32.1952 -1.81361C32.9953 -1.75921 33.8337 -1.5699 34.7106 -1.24567Z" fill="#FC4A81"/>
<path d="M34.7106 -1.24561C36.2018 -0.685662 37.8659 0.37503 38.8487 1.77969C36.5225 4.47861 34.8673 7.09275 33.0244 9.90526C31.2198 12.6586 28.8862 15.4535 26.6398 18.0676C26.1206 17.5088 25.5629 16.9931 24.9669 16.5206C24.9284 16.4907 24.8866 16.471 24.8412 16.4614C24.7959 16.4518 24.7792 16.423 24.791 16.375C24.8841 15.983 25.0511 15.6823 25.1058 15.2599C25.1925 14.5741 25.1713 13.8857 25.0422 13.1945C27.3881 10.2284 29.3552 7.45484 30.9435 4.87377C32.1948 2.83985 33.4505 0.800053 34.7106 -1.24561Z" fill="#FB3596"/>
<path d="M40.7774 4.80939C38.8 7.74989 36.8373 10.7112 34.8894 13.6933C33.0588 16.4941 30.9016 18.9749 28.4177 21.1357C28.0394 19.9668 27.4468 18.9439 26.6398 18.0672C28.8862 15.4531 31.2198 12.6582 33.0243 9.90487C34.8673 7.09236 36.5225 4.47822 38.8487 1.7793C39.6823 2.63041 40.3251 3.64044 40.7774 4.80939Z" fill="#F829A8"/>
<path d="M40.7774 4.80957L41.2518 5.97425C40.5188 9.58668 39.1749 12.9111 37.2201 15.9476C35.4329 18.7218 33.4692 21.3961 31.3292 23.9708C29.9681 25.6075 28.5508 27.1625 27.234 28.8631C24.5107 32.3817 22.0293 36.0933 19.7898 39.998L17.5685 39.9964L23.9915 29.3383C24.7994 28.9863 25.3196 28.7207 25.5521 28.5416C26.9547 27.4553 28.1695 25.8554 28.4784 24.0476C28.5198 23.8055 28.5641 23.5613 28.6114 23.3149C28.7459 22.6142 28.6069 21.8126 28.4178 21.1359C30.9016 18.9751 33.0589 16.4942 34.8895 13.6935C36.8373 10.7114 38.8 7.75007 40.7774 4.80957Z" fill="#F516C4"/>
<path d="M41.9834 16.1528C39.7562 20.9171 36.9718 24.8703 33.7145 28.9899C33.0997 29.7674 32.4302 30.5529 31.7061 31.3464C30.3947 32.7831 29.0665 34.256 27.7217 35.7652C26.6206 36.9987 25.5684 38.2865 25.1117 39.9999L19.7898 39.9983C22.0293 36.0937 24.5107 32.3821 27.234 28.8635C28.5508 27.1629 29.9681 25.6078 31.3292 23.9712C33.4692 21.3965 35.4328 18.7221 37.2201 15.948C39.1749 12.9115 40.5188 9.58704 41.2518 5.97461C41.7494 7.33767 41.9986 8.79139 41.9996 10.3358C42.0016 13.2485 41.9962 15.1875 41.9834 16.1528Z" fill="#F10BD9"/>
<path d="M21.7643 9.97578C22.2579 10.0696 22.6875 10.2216 23.053 10.4317C24.0924 11.0311 24.7555 11.9521 25.0422 13.1947C25.1713 13.8858 25.1925 14.5742 25.1058 15.26C25.0511 15.6824 24.8841 15.9832 24.791 16.3751C24.7792 16.4231 24.7959 16.4519 24.8412 16.4615C24.8866 16.4711 24.9284 16.4909 24.9669 16.5207C25.5629 16.9932 26.1206 17.5089 26.6398 18.0678C27.4468 18.9445 28.0394 19.9673 28.4178 21.1362C28.6069 21.813 28.7458 22.6145 28.6114 23.3152C28.5641 23.5616 28.5197 23.8058 28.4783 24.0479C28.1695 25.8558 26.9546 27.4556 25.5521 28.5419C25.3196 28.7211 24.7994 28.9866 23.9915 29.3386C23.4683 29.433 22.9614 29.5194 22.4175 29.5162C19.7898 29.5023 17.1621 29.521 14.5344 29.5722C14.3196 29.5765 14.1112 29.5823 13.9092 29.5898C13.1841 30.106 12.6998 30.4041 12.4565 30.4841C11.7412 30.7177 11.0387 30.6851 10.349 30.3865C9.79331 30.1449 9.52729 29.561 9.20363 28.969C9.03219 28.5435 8.95485 28.0939 8.9716 27.6204C8.98835 27.1639 9.10461 26.7383 9.32038 26.3437C9.79725 25.4745 10.5199 24.8692 11.4885 24.5279C11.5863 24.4936 11.6714 24.4257 11.7308 24.3343C12.3338 23.4064 12.9043 22.4561 13.556 21.5378C13.8004 21.1933 14.0595 20.804 14.3334 20.3699C15.1507 19.0773 16.2295 17.5974 17.4074 16.5431C17.4306 16.5226 17.4467 16.4942 17.4531 16.4626C17.4596 16.4309 17.456 16.3979 17.4429 16.3687C16.9079 15.18 16.701 13.345 17.4488 12.214C17.6557 11.902 17.7872 11.5468 18.0488 11.2716C19.0637 10.2051 20.3021 9.77313 21.7643 9.97578ZM21.7642 15.3724C22.0488 15.1638 22.2427 14.8372 22.3032 14.4646C22.3637 14.092 22.2858 13.7039 22.0868 13.3855C21.9882 13.2279 21.8628 13.0922 21.7178 12.9861C21.5728 12.88 21.411 12.8057 21.2416 12.7672C21.0722 12.7288 20.8986 12.7271 20.7307 12.7623C20.5627 12.7974 20.4038 12.8686 20.2628 12.9719C19.9782 13.1805 19.7843 13.5071 19.7238 13.8797C19.6633 14.2523 19.7411 14.6404 19.9402 14.9588C20.0388 15.1164 20.1642 15.2521 20.3092 15.3582C20.4542 15.4643 20.616 15.5387 20.7854 15.5771C20.9548 15.6155 21.1284 15.6172 21.2963 15.582C21.4643 15.5469 21.6232 15.4757 21.7642 15.3724ZM23.0574 26.2221C24.4998 25.6846 25.326 24.6378 25.5359 23.0816C25.5876 22.7025 25.4708 22.3841 25.4398 22.0162C25.3851 21.3394 24.9506 20.6755 24.5072 20.2115C24.2471 19.9065 24.0747 19.722 23.99 19.658C23.4668 19.2676 23.0466 18.9658 22.7293 18.7525C22.4357 18.5541 22.1229 18.4507 21.7909 18.4421C21.2608 18.4272 20.7401 18.4123 20.2287 18.3973C19.3228 18.3733 19.2947 19.1076 18.6681 19.514C18.5922 19.5635 18.5275 19.6307 18.4789 19.7108C18.3429 19.9337 18.1873 20.1555 18.0119 20.3763C16.9222 21.749 15.7936 23.2902 14.626 24.9999C14.3639 25.3838 14.2098 25.8307 14.1634 26.3405C14.1622 26.3541 14.1636 26.3679 14.1675 26.3809C14.1714 26.3938 14.1777 26.4058 14.1861 26.4159C14.1944 26.426 14.2046 26.434 14.216 26.4395C14.2274 26.445 14.2397 26.4478 14.2521 26.4477C16.6414 26.4488 19.0632 26.4477 21.5175 26.4445C22.1963 26.4434 22.7096 26.3693 23.0574 26.2221Z" fill="#FEFEFE"/>
<path d="M19.9408 14.9584C20.3553 15.6211 21.1718 15.8064 21.7643 15.3721C22.3569 14.9378 22.5012 14.0484 22.0867 13.3856C21.6721 12.7228 20.8557 12.5376 20.2632 12.9719C19.6706 13.4062 19.5263 14.2956 19.9408 14.9584Z" fill="#FC4A81"/>
<path d="M24.5073 20.2118L23.0574 26.2224C22.7097 26.3695 22.1963 26.4437 21.5175 26.4447C19.0632 26.4479 16.6414 26.449 14.2521 26.4479C14.2397 26.448 14.2274 26.4452 14.216 26.4398C14.2046 26.4343 14.1944 26.4262 14.1861 26.4161C14.1777 26.406 14.1714 26.3941 14.1675 26.3811C14.1636 26.3681 14.1622 26.3544 14.1635 26.3407C14.2098 25.8309 14.364 25.384 14.6261 25.0001C15.7936 23.2904 16.9222 21.7492 18.0119 20.3765C18.1873 20.1558 18.343 19.9339 18.4789 19.711C18.5276 19.631 18.5922 19.5637 18.6681 19.5142C19.2947 19.1079 19.3228 18.3735 20.2288 18.3975C20.7401 18.4125 21.2608 18.4274 21.7909 18.4423C22.1229 18.4509 22.4357 18.5543 22.7294 18.7527C23.0466 18.966 23.4668 19.2679 23.99 19.6582C24.0747 19.7222 24.2472 19.9067 24.5073 20.2118Z" fill="#FB3596"/>
<path d="M41.9834 16.1523C42.005 20.0986 42.005 24.0331 41.9834 27.9559C41.973 29.8294 41.3907 31.65 40.5542 33.5058C39.4207 36.0207 37.4566 37.9933 35.1259 39.1004C34.1929 39.543 33.1662 39.8059 32.046 39.8891C30.9957 39.967 28.6843 40.0038 25.1117 39.9995C25.5684 38.2861 26.6206 36.9982 27.7217 35.7647C29.0665 34.2556 30.3947 32.7827 31.7061 31.346C32.4302 30.5525 33.0997 29.767 33.7145 28.9894C36.9718 24.8699 39.7562 20.9167 41.9834 16.1523Z" fill="#EB00FA"/>
<path d="M23.0574 26.222L24.5072 20.2114C24.9506 20.6754 25.3851 21.3393 25.4398 22.016C25.4708 22.384 25.5876 22.7024 25.5358 23.0815C25.326 24.6376 24.4998 25.6845 23.0574 26.222Z" fill="#F829A8"/>
<path d="M13.9092 29.5895C13.3949 31.1008 12.9422 32.2895 12.551 33.1555C12.2427 33.8381 11.4801 35.4662 10.2633 38.0398C9.98246 38.6318 9.70757 39.2312 9.43859 39.838C8.87206 39.7858 8.32229 39.653 7.78926 39.4397C6.32023 38.8541 5.16747 38.1662 3.98663 37.1023C5.96209 34.5564 7.70108 31.8453 9.20361 28.9688C9.52727 29.5607 9.79329 30.1446 10.349 30.3862C11.0387 30.6848 11.7412 30.7174 12.4565 30.4838C12.6998 30.4038 13.1841 30.1057 13.9092 29.5895Z" fill="#FC4A81"/>
<path d="M23.9914 29.3384L17.5685 39.9965C15.66 39.9912 13.7496 39.9821 11.8372 39.9693C11.0382 39.9629 10.2386 39.9192 9.4386 39.8381C9.70758 39.2312 9.98246 38.6318 10.2633 38.0399C11.4801 35.4663 12.2427 33.8382 12.551 33.1556C12.9422 32.2895 13.3949 31.1009 13.9092 29.5896C14.1112 29.5821 14.3196 29.5762 14.5344 29.572C17.1621 29.5208 19.7898 29.5021 22.4175 29.516C22.9613 29.5192 23.4683 29.4328 23.9914 29.3384Z" fill="#F829A8"/>
</g>
</g>
<defs>
<clipPath id="clip0_91_170">
<rect width="40" height="40" fill="white"/>
</clipPath>
</defs>
</svg>
